<?xml version="1.0" encoding="UTF-8" standalone="no"?>
<svg
   fill="#512bd4"
   viewBox="0 0 29.999999 30.000001"
   version="1.1"
   id="svg1"
   width="30"
   height="30"
   xmlns="http://www.w3.org/2000/svg"
   xmlns:svg="http://www.w3.org/2000/svg">
  <defs
     id="defs1" />
  <rect
     style="fill:#512bd4;stroke-width:0.377953;stroke-linecap:round;stroke-linejoin:round;stroke-miterlimit:2.4"
     id="rect1"
     width="30"
     height="30"
     x="0"
     y="0" />
  <path
     d="m 26.834025,11.101017 a 13.912,13.912 0 0 1 -13.643,11.72 10.105,10.105 0 0 1 -1.993999,-0.12 6.111,6.111 0 0 1 -5.0820004,-5.761 5.934,5.934 0 0 1 11.8669994,-0.084 c 0.025,0.983 -0.401,1.846 -1.277,1.871 -0.936,0 -1.374,-0.668 -1.374,-1.567 v -2.5 a 1.531,1.531 0 0 0 -1.52,-1.533 h -2.095999 a 3.648,3.648 0 1 0 2.694999,6.08 l 0.073,-0.11 0.074,0.121 a 2.58,2.58 0 0 0 2.2,1.048 2.909,2.909 0 0 0 2.695,-3.04 7.912,7.912 0 0 0 -0.217,-1.933 7.404,7.404 0 0 0 -14.6399994,1.603 7.497,7.497 0 0 0 7.3080004,7.405 c 0,0 0.549,0.05 1.166999,0.035 a 15.803,15.803 0 0 0 8.475,-2.528 c 0.036,-0.025 0.072,0.025 0.048,0.061 a 12.44,12.44 0 0 1 -9.689999,3.963 8.744,8.744 0 0 1 -8.9000004,-8.972 9.049,9.049 0 0 1 3.635,-7.2470005 8.863,8.863 0 0 1 5.2290004,-1.726 h 2.812999 a 7.915,7.915 0 0 0 5.839,-2.578 0.11,0.11 0 0 1 0.059,-0.034 0.112,0.112 0 0 1 0.12,0.053 0.113,0.113 0 0 1 0.015,0.067 7.934,7.934 0 0 1 -1.227,3.549 0.107,0.107 0 0 0 -0.014,0.06 0.11,0.11 0 0 0 0.073,0.095 0.109,0.109 0 0 0 0.062,0.004 8.505,8.505 0 0 0 5.913,-4.8759999 0.155,0.155 0 0 1 0.055,-0.053 0.15,0.15 0 0 1 0.147,0 0.153,0.153 0 0 1 0.054,0.053 10.779,10.779 0 0 1 1.058,6.8730004 z m -14.938999,3.527 a 2.188,2.188 0 1 0 2.187999,2.188 v -2.042 a 0.158,0.158 0 0 0 -0.15,-0.15 z"
     id="path1"
     style="fill:#ffffff;fill-opacity:1" />
</svg>
