<svg xmlns="http://www.w3.org/2000/svg" viewBox="0 0 24 24" preserveAspectRatio="xMidYMid"><path d="M22.676 7.056c0-.404-.086-.76-.261-1.066-.171-.301-.428-.553-.773-.753L13.112.323c-.766-.442-1.509-.426-2.269.022L2.358 5.236c-.695.402-1.034 1.018-1.034 1.819l-.001 9.889c0 .395.083.744.25 1.046.172.31.432.569.784.773l8.485 4.891c.761.449 1.504.465 2.27.022l8.531-4.914c.352-.204.613-.463.784-.773.167-.301.25-.651.25-1.046l-.001-9.888" fill="#a179dc"/><path d="M12.033 11.968L1.573 17.99c.172.31.432.569.784.773l8.485 4.891c.761.449 1.504.465 2.27.022l8.531-4.914c.352-.204.613-.463.784-.773l-10.395-6.022" fill="#280068"/><path d="M22.676 7.056c0-.404-.086-.76-.261-1.066l-10.382 5.978 10.395 6.022c.167-.301.249-.651.25-1.046l-.001-9.888" fill="#390091"/><path d="M18.191 9.716v1.126h1.126V9.716h.563v1.126h1.126v.563H19.88v1.126h1.126v.563H19.88v1.126h-.563v-1.126h-1.126v1.126h-.563v-1.126h-1.126v-.563h1.126v-1.126h-1.126v-.563h1.126V9.716zm1.126 1.689h-1.126v1.126h1.126zm-7.261-7.342c2.936 0 5.5 1.595 6.873 3.965l-.013-.023-3.455 1.989a3.95 3.95 0 0 0-3.36-1.946h-.045c-2.183 0-3.952 1.77-3.952 3.952-.001.688.179 1.364.521 1.961a3.95 3.95 0 0 0 6.875-.023l-.016.029 3.449 1.998c-1.358 2.35-3.886 3.94-6.789 3.972h-.088c-2.946 0-5.516-1.604-6.886-3.987A7.9 7.9 0 0 1 4.118 12a7.94 7.94 0 0 1 7.937-7.937z" fill="#fff"/></svg>