<svg xmlns="http://www.w3.org/2000/svg" width="256" height="288" preserveAspectRatio="xMidYMid" xmlns:v="https://vecta.io/nano"><path d="M255.569 84.452c-.002-4.83-1.035-9.098-3.124-12.761-2.052-3.602-5.125-6.621-9.247-9.008L141.101 3.866c-9.17-5.294-18.061-5.101-27.163.269L12.385 62.672C4.064 67.489.015 74.861.013 84.443L0 202.808c0 4.724.991 8.909 2.988 12.517 2.053 3.711 5.169 6.813 9.386 9.254l101.56 58.536c9.106 5.373 17.997 5.565 27.17.269l102.105-58.817c4.217-2.44 7.333-5.544 9.386-9.252 1.994-3.608 2.987-7.793 2.987-12.518l-.013-118.345" fill="#a179dc"/><path d="M128.182 143.241L2.988 215.325c2.053 3.711 5.169 6.813 9.386 9.254l101.56 58.536c9.106 5.373 17.997 5.565 27.17.269l102.105-58.817c4.217-2.44 7.333-5.544 9.386-9.252l-124.413-72.074" fill="#280068"/><path d="M255.569 84.452c-.002-4.83-1.035-9.098-3.124-12.761l-124.263 71.55 124.413 72.074c1.994-3.608 2.985-7.793 2.987-12.518l-.013-118.345" fill="#390091"/><path d="M201.892 116.294v13.474h13.474v-13.474h6.737v13.474h13.474v6.737h-13.474v13.474h13.474v6.737h-13.474v13.474h-6.737v-13.474h-13.474v13.474h-6.737v-13.474h-13.474v-6.737h13.474v-13.474h-13.474v-6.737h13.474v-13.474h6.737zm13.474 20.211h-13.474v13.474h13.474v-13.474zm-86.909-87.879c35.144 0 65.827 19.086 82.262 47.456l-.16-.273-41.349 23.808c-8.147-13.794-23.081-23.102-40.213-23.294l-.54-.003c-26.126 0-47.306 21.179-47.306 47.305a47.08 47.08 0 0 0 6.239 23.469c8.154 14.235 23.483 23.837 41.067 23.837 17.693 0 33.109-9.723 41.222-24.111l-.197.345 41.286 23.918c-16.254 28.13-46.517 47.157-81.253 47.536l-1.058.006c-35.255 0-66.025-19.204-82.419-47.724-8.003-13.923-12.582-30.064-12.582-47.277 0-52.466 42.532-94.999 95.001-94.999z" fill="#fff"/></svg>