<svg xmlns="http://www.w3.org/2000/svg" width="24" height="24" viewbox="0 0 24 24" fill="currentColor" xmlns:v="https://vecta.io/nano"><path fill-rule="evenodd" d="M12.01.2C5.369.2 0 5.608 0 12.299a12.09 12.09 0 0 0 8.212 11.478c.597.12.815-.26.815-.581l-.02-2.244c-3.341.721-4.037-1.442-4.037-1.442-.537-1.402-1.332-1.763-1.332-1.763-1.093-.741.08-.741.08-.741 1.213.08 1.849 1.242 1.849 1.242 1.074 1.843 2.803 1.322 3.499 1.002.099-.781.418-1.322.756-1.622-2.665-.28-5.468-1.322-5.468-5.97 0-1.322.477-2.404 1.233-3.245-.119-.3-.537-1.543.119-3.205 0 0 1.014-.321 3.301 1.242a11.547 11.547 0 0 1 3.003-.401 11.55 11.55 0 0 1 3.002.401c2.287-1.563 3.301-1.242 3.301-1.242.656 1.663.238 2.905.119 3.205.776.841 1.233 1.923 1.233 3.245 0 4.647-2.803 5.669-5.488 5.97.438.381.815 1.102.815 2.243l-.02 3.325c0 .321.219.701.815.581A12.09 12.09 0 0 0 24 12.299C24.02 5.608 18.631.2 12.01.2z"/></svg>