<svg xmlns="http://www.w3.org/2000/svg" viewBox="0 0 24 24" fill="currentColor" xmlns:v="https://vecta.io/nano"><path d="M12 17.455q-2.264 0-3.859-1.595Q6.545 14.264 6.545 12q0-2.264 1.595-3.859Q9.736 6.545 12 6.545q2.264 0 3.859 1.595Q17.455 9.736 17.455 12q0 2.264-1.595 3.859-1.595 1.595-3.859 1.595zm-7.636-4.364H0v-2.182h4.364zm19.636 0h-4.364v-2.182H24zM10.909 4.364V0h2.182v4.364zm0 19.636v-4.364h2.182V24zM5.891 7.364L3.136 4.718l1.555-1.609 2.618 2.727zm13.418 13.527l-2.645-2.755 1.445-1.5 2.755 2.645zm-2.673-15l2.645-2.755 1.609 1.555-2.727 2.618zM3.109 19.309l2.755-2.645 1.5 1.445-2.645 2.755z"/></svg>