<svg xmlns="http://www.w3.org/2000/svg" height="24" width="24" viewbox="0 0 24 24" fill="currentColor" xmlns:v="https://vecta.io/nano"><path d="M2.667 0C1.194 0 0 1.194 0 2.667v18.667C0 22.806 1.194 24 2.667 24h18.667C22.806 24 24 22.806 24 21.333V2.667C24 1.194 22.806 0 21.333 0zM5.45 3.333c1.169 0 2.116.955 2.116 2.132S6.619 7.598 5.45 7.598s-2.117-.955-2.117-2.133.947-2.132 2.117-2.132zm11.011 5.424c2.451 0 4.206 1.497 4.206 4.592v7.316h-3.561v-6.066c0-1.663-.632-2.592-1.949-2.592-1.432 0-2.18.967-2.18 2.592v6.066H9.544V9.111h3.432v1.556s1.032-1.91 3.484-1.91zm-12.783.354h3.579v11.555H3.678z" fill-rule="evenodd"/></svg>