<svg xmlns="http://www.w3.org/2000/svg" viewBox="0 0 24 24" fill="currentColor" xmlns:v="https://vecta.io/nano"><path d="M11.837 22.86l4.941-13.032h2.281L24 22.86h-2.281l-1.167-3.312h-5.267l-1.167 3.312zm-8.579-3.258l-1.52-1.52 5.484-5.484q-.95-.95-1.724-2.172-.774-1.222-1.425-2.769h2.281q.543 1.059 1.086 1.846.543.787 1.303 1.575.896-.896 1.86-2.511.964-1.615 1.452-3.081H0V3.312h7.602V1.14h2.172v2.172h7.602v2.172h-3.149q-.57 1.955-1.71 4.018-1.14 2.063-2.253 3.149l2.606 2.661-.814 2.226-3.312-3.394zm12.706-1.955h3.909l-1.955-5.538z"/></svg>