<svg xmlns="http://www.w3.org/2000/svg" viewBox="0 0 512 512"><g transform="matrix(5.586187 0 0 5.586187 -1919.93354 -1495.20123)"><use href="#B" fill="#5fbcd3"/><use href="#C" fill="#2c89a0"/><use href="#B" y="-14.503" fill="#5fbcd3"/><use href="#C" y="-14.503" fill="#2c89a0"/><path d="M345.068 305.071l43.078 24.871a2.75 2.75 0 0 0 2.75 0l43.078-24.871a2.75 2.75 0 0 0 1.375-2.381v-7.408a2.75 2.75 0 0 0-1.375-2.381l-43.078-24.871a2.75 2.75 0 0 0-2.75 0L345.068 292.9a2.75 2.75 0 0 0-1.375 2.381v7.408a2.75 2.75 0 0 0 1.375 2.381z" fill="#ffd42a"/><path d="M356.077 308.769l-6.416-3.704a2.75 2.75 0 0 1-1.375-2.381v-5.027a2.29 2.29 0 0 1 1.146-1.984l44.682-25.797 9.165 5.292-30.933 17.859c-.236.136-.382.389-.382.661s.146.525.382.661l16.04 9.26a2.29 2.29 0 0 0 2.291 0l30.933-17.859 9.165 5.292-30.933 17.859c-.236.136-.382.389-.382.661s.146.525.382.661l2.291 1.323a2.29 2.29 0 0 1 1.146 1.984v2.844a2.25 2.25 0 0 1-1.156 1.966l-6.853 3.809a.78.78 0 0 1-1.156-.68v-2.646a2.29 2.29 0 0 0-1.146-1.984l-29.788-17.198a2.29 2.29 0 0 0-2.291 0l-2.291 1.323a2.29 2.29 0 0 0-1.146 1.984v5.027c0 .327-.175.63-.458.794s-.633.164-.917 0z" fill="#666"/><path d="M345.068 292.9a2.75 2.75 0 0 0-1.375 2.381v7.408a2.75 2.75 0 0 0 1.375 2.381l43.077 24.871a2.75 2.75 0 0 0 2.75 0l43.077-24.871a2.75 2.75 0 0 0 1.375-2.381v-7.408a2.75 2.75 0 0 0-1.375-2.381.917.917 0 0 1 0 1.587l-43.077 24.871a2.75 2.75 0 0 1-2.75 0l-43.077-24.871a.917.917 0 0 1 0-1.587z" fill-opacity=".1"/></g><defs ><path id="B" d="M345.069 334.076l43.078 24.871a2.75 2.75 0 0 0 2.75 0l43.078-24.871a2.75 2.75 0 0 0 1.375-2.381v-7.408a2.75 2.75 0 0 0-1.375-2.381l-43.078-24.871a2.75 2.75 0 0 0-2.75 0l-43.078 24.871a2.75 2.75 0 0 0-1.375 2.381v7.408a2.75 2.75 0 0 0 1.375 2.381z"/><path id="C" d="M345.069 323.492l43.078 24.871a2.75 2.75 0 0 0 2.75 0l43.078-24.871c.284-.164.458-.466.458-.794s-.175-.63-.458-.794l-43.078-24.871a2.75 2.75 0 0 0-2.75 0l-43.078 24.871c-.284.164-.458.466-.458.794s.175.63.458.794z"/></defs></svg>