<svg xmlns="http://www.w3.org/2000/svg" viewBox="0 0 24 24" xmlns:v="https://vecta.io/nano"><g transform="matrix(0.025306,-0.025306,0.025306,0.025306,-0.95664762,11.337917)"><path d="M19.873 512c-5.086 0-10.172-1.94-14.052-5.822-7.761-7.761-7.761-20.344 0-28.105l289.946-289.946c7.76-7.761 20.344-7.761 28.105 0s7.761 20.344 0 28.105L33.925 506.178A19.8 19.8 0 0 1 19.873 512z" fill="#806600"/><path d="M5.822 506.178c-7.761-7.761-7.761-20.344 0-28.105l289.946-289.946c7.76-7.761 20.344-7.761 28.105 0z" fill="#a80"/><path d="M508.053 199.349l-50.258-67.348 26.988-79.582c2.429-7.164.58-15.086-4.768-20.435s-13.271-7.197-20.435-4.768l-79.582 26.988L312.65 3.947c-6.061-4.524-14.168-5.215-20.908-1.781s-10.946 10.398-10.849 17.961l1.074 84.026-68.611 48.52c-6.177 4.368-9.336 11.863-8.153 19.335a19.87 19.87 0 0 0 13.73 15.868l80.246 24.944 24.944 80.246c2.244 7.223 8.397 12.545 15.868 13.73 1.04.164 2.08.245 3.112.245a19.88 19.88 0 0 0 16.223-8.398l48.52-68.611 84.026 1.074c7.585.078 14.527-4.11 17.961-10.849s2.745-14.844-1.78-20.908z" fill="#f79d1e"/><path d="M480.015 31.985c-5.349-5.349-13.271-7.197-20.435-4.768l-79.582 26.988L312.65 3.947c-6.061-4.524-14.168-5.215-20.908-1.781s-10.946 10.398-10.849 17.961l1.074 84.026-68.611 48.52c-6.177 4.368-9.336 11.863-8.153 19.335a19.87 19.87 0 0 0 13.73 15.868l80.246 24.944z" fill="#fbb03b"/></g></svg>