<svg xmlns="http://www.w3.org/2000/svg" viewBox = "0 0 24 24" preserveAspectRatio="xMidYMid" fill="currentColor"><path d="M11.214.006l-.364.033C7.442.347 4.249 2.186 2.226 5.012 1.1 6.584.38 8.367.108 10.255.012 10.914 0 11.109 0 12.002s.012 1.088.108 1.747a12.05 12.05 0 0 0 8.209 9.695 12.69 12.69 0 0 0 2.534.525c.364.04 1.935.04 2.299 0 1.612-.178 2.977-.577 4.324-1.264.206-.106.246-.134.218-.157-.019-.014-.898-1.194-1.954-2.62l-1.919-2.592-2.405-3.558-2.421-3.556c-.009-.002-.019 1.579-.023 3.509l-.052 3.596c-.061.115-.108.162-.206.213-.075.038-.141.045-.495.045H7.81l-.108-.068a.439.439 0 0 1-.157-.171l-.049-.106.005-4.703.007-4.705.073-.091c.037-.049.117-.113.174-.143.096-.047.134-.052.54-.052.479 0 .558.019.683.155.035.037 1.337 1.999 2.895 4.361l4.734 7.171 1.9 2.878.096-.063c.852-.554 1.752-1.342 2.466-2.163 1.518-1.743 2.496-3.868 2.825-6.134.096-.659.108-.854.108-1.747s-.012-1.088-.108-1.747A12.05 12.05 0 0 0 15.683.56C14.916.311 14.1.14 13.185.037a31.05 31.05 0 0 0-1.971-.03h0zm4.913 7.258c.113.056.204.164.237.277.019.061.023 1.365.019 4.304l-.007 4.218-.744-1.14-.746-1.14v-3.066l.023-3.15a.48.48 0 0 1 .232-.296c.096-.049.131-.054.5-.054.347 0 .408.005.486.047z"/></svg>