<svg xmlns="http://www.w3.org/2000/svg" fill="currentColor" viewBox="0 0 24 24" xmlns:v="https://vecta.io/nano"><path d="M6.874.007c-.224.036-.493.153-.682.298-.574.436-1.018 1.361-1.206 2.514a10.47 10.47 0 0 0-.119 1.503c0 .545.064 1.241.155 1.721.021.107.031.202.022.209s-.091.076-.186.152c-.324.258-.694.657-.949 1.02a5.49 5.49 0 0 0-.939 2.338c-.052.338-.066 1.02-.024 1.358.091.779.326 1.437.727 2.04l.131.195-.038.064c-.269.451-.498 1.105-.605 1.732a5.78 5.78 0 0 0-.095 1.294c0 .67.009.803.088 1.267.095.555.288 1.142.503 1.534.071.128.243.393.264.407.007.003-.014.067-.046.141-.248.543-.46 1.265-.548 1.873-.062.417-.071.551-.071.991 0 .56.031.832.148 1.279l.017.065h.738.739l-.048-.091c-.298-.551-.326-1.575-.069-2.597.117-.472.25-.819.498-1.296l.148-.289v-.177a.47.47 0 0 0-.057-.293c-.041-.083-.096-.153-.195-.25a1.74 1.74 0 0 1-.384-.543c-.424-.92-.507-2.287-.208-3.451.124-.486.329-.918.545-1.154.146-.162.222-.343.222-.531 0-.195-.069-.355-.224-.522-.445-.476-.719-1.055-.817-1.728-.14-.96.114-2.006.689-2.835.563-.813 1.354-1.335 2.238-1.475.198-.033.569-.028.775.01.226.04.367.028.512-.041.179-.084.269-.19.374-.431.093-.215.165-.333.36-.576A3.28 3.28 0 0 1 10.079 5c.414-.271.884-.467 1.353-.562.171-.034.25-.04.569-.04s.398.005.569.04c.688.14 1.37.495 1.914.998a4.53 4.53 0 0 1 .488.601c.034.057.095.177.133.267.105.241.195.346.374.431.14.067.286.081.503.045.343-.059.607-.053.943.016 1.144.231 2.14 1.173 2.581 2.437.384 1.108.276 2.268-.296 3.153a2.74 2.74 0 0 1-.333.419c-.302.322-.302.722-.002 1.053.493.539.801 1.866.708 3.036-.062.772-.26 1.463-.532 1.854-.048.069-.148.186-.224.258-.098.096-.153.167-.195.25-.053.109-.057.128-.057.293v.177l.148.289c.248.477.381.824.498 1.296.253 1.008.231 2.011-.059 2.581l-.045.098c0 .005.329.009.732.009h.731l.019-.074.036-.134c.019-.076.057-.3.088-.515a9.01 9.01 0 0 0 0-1.258c-.11-.875-.295-1.57-.596-2.226-.033-.074-.053-.138-.047-.141s.057-.074.109-.152c.376-.569.607-1.284.724-2.228a14.27 14.27 0 0 0 0-1.628c-.083-.644-.183-1.082-.348-1.525-.069-.184-.252-.574-.329-.7l-.038-.064.131-.195c.401-.603.636-1.261.727-2.04a6.63 6.63 0 0 0-.024-1.358c-.134-.856-.45-1.642-.939-2.338-.255-.364-.626-.762-.949-1.02l-.186-.152c-.009-.007.002-.102.022-.209.209-1.087.202-2.443-.017-3.503-.19-.924-.534-1.658-.979-2.082-.355-.338-.717-.482-1.151-.455-.996.059-1.799 1.205-2.116 3.01l-.097.725c0 .036-.007.065-.015.065a.94.94 0 0 1-.148-.078c-.769-.455-1.623-.698-2.456-.698s-1.687.243-2.456.698a.96.96 0 0 1-.148.078c-.009 0-.015-.029-.015-.065 0-.097-.046-.448-.097-.725C8.996 1.392 8.336.319 7.459.048a2.1 2.1 0 0 0-.586-.041zm.293 1.403c.248.196.524.758.682 1.387l.069.293.041.233c.067.365.098.76.102 1.241l.002.474-.119.176-.119.177h-.277c-.324 0-.646.041-.955.124l-.238.06c-.033.007-.038-.003-.057-.145a8.44 8.44 0 0 1 .016-2.323c.124-.787.414-1.501.696-1.711.067-.05.079-.048.157.014zm9.825-.012c.171.126.358.46.498.887.281.855.36 2.028.212 3.145-.019.141-.024.152-.057.145l-.238-.06c-.308-.083-.631-.124-.955-.124h-.277l-.119-.177-.119-.176.002-.474c.003-.669.065-1.191.214-1.771.157-.624.434-1.186.681-1.382.078-.062.09-.064.159-.012zm-5.259 8.673l-.655.086a4.5 4.5 0 0 0-.951.327c-.941.46-1.589 1.227-1.787 2.114-.04.176-.045.234-.045.531s.005.357.043.524c.264 1.16 1.332 2.016 2.714 2.173a18.3 18.3 0 0 0 1.895 0c1.11-.126 2.064-.727 2.493-1.572.114-.226.169-.372.221-.601.038-.167.043-.231.043-.524s-.005-.355-.045-.531c-.288-1.289-1.539-2.304-3.072-2.497-.2-.024-.724-.045-.855-.031zm.644.937c.512.055 1.027.238 1.441.514.222.148.536.458.67.662.165.252.26.508.303.82.019.143.009.252-.043.482-.081.345-.333.705-.672.956-.159.115-.488.283-.689.348-.383.122-.632.145-1.525.138l-.853-.041c-.57-.107-1.022-.334-1.349-.681-.265-.279-.386-.534-.451-.946-.029-.191.026-.508.138-.775.136-.326.488-.731.836-.963a3.31 3.31 0 0 1 1.422-.512c.188-.021.586-.021.774-.002zm-1.036 1.258c-.131.071-.222.25-.195.383.031.143.157.288.353.407.105.064.112.072.117.136.003.038-.01.146-.029.243s-.036.195-.036.222c.002.074.071.195.143.253.064.052.076.053.255.059.164.005.198.002.264-.029.169-.083.212-.234.15-.526-.052-.243-.041-.281.088-.355.136-.079.281-.219.324-.314.083-.181.007-.386-.176-.481-.045-.022-.1-.033-.181-.033-.126 0-.207.029-.355.124l-.084.053-.053-.033c-.219-.129-.258-.145-.391-.143-.095 0-.146.009-.193.033zm-4.184-2.001c-.305.097-.532.321-.65.639-.057.152-.084.391-.06.52.057.308.31.589.598.667.362.095.632.033.872-.205.14-.136.215-.255.291-.448.055-.136.059-.16.059-.353l.002-.207-.072-.148c-.115-.234-.324-.408-.565-.472a1.02 1.02 0 0 0-.474.007zm9.203-.005c-.236.064-.446.239-.558.47l-.072.148.002.207a.67.67 0 0 0 .059.353 1.14 1.14 0 0 0 .291.448c.24.238.51.3.872.205a.86.86 0 0 0 .517-.436.75.75 0 0 0 .079-.498c-.064-.453-.329-.782-.724-.898a1.06 1.06 0 0 0-.465 0z" fill="currentColor"/></svg>