<svg xmlns="http://www.w3.org/2000/svg" viewBox="0 0 111.161 111.161" xmlns:v="https://vecta.io/nano"><defs><linearGradient id="A" x1="69.931" y1="97.548" x2="48.031" y2="66.265" gradientUnits="userSpaceOnUse"><stop offset="0" stop-color="#ffd43b"/><stop offset="1" stop-color="#ffe873"/></linearGradient><linearGradient id="B" x1="0" y1="0" x2="61.326" y2="53.272" gradientUnits="userSpaceOnUse"><stop offset="0" stop-color="#5a9fd4"/><stop offset="1" stop-color="#306998"/></linearGradient><radialGradient id="C" gradientTransform="matrix(1.7490565e-8,-0.23994696,1.054668,3.7915457e-7,-83.7008,142.46201)" cx="61.519" cy="132.286" fx="61.519" fy="132.286" r="29.037" gradientUnits="userSpaceOnUse"><stop offset="0" stop-color="#b8b8b8" stop-opacity=".498"/><stop offset="1" stop-color="#7f7f7f" stop-opacity="0"/></radialGradient></defs><path d="M54.919.001c-4.584.021-8.961.412-12.812 1.094C30.76 3.099 28.7 7.295 28.7 15.032v10.219h26.813v3.406H28.7 18.638c-7.792 0-14.616 4.684-16.75 13.594-2.462 10.213-2.571 16.586 0 27.25 1.906 7.938 6.458 13.594 14.25 13.594h9.219v-12.25c0-8.85 7.657-16.656 16.75-16.656h26.781c7.455 0 13.406-6.138 13.406-13.625V15.032c0-7.266-6.13-12.725-13.406-13.937C64.282.328 59.502-.02 54.919.001zm-14.5 8.219c2.77 0 5.031 2.299 5.031 5.125 0 2.816-2.262 5.094-5.031 5.094-2.779 0-5.031-2.277-5.031-5.094 0-2.826 2.252-5.125 5.031-5.125z" fill="url(#B)"/><path d="M85.638 28.657v11.906c0 9.231-7.826 17-16.75 17H42.106c-7.336 0-13.406 6.278-13.406 13.625V96.72c0 7.266 6.319 11.54 13.406 13.625 8.487 2.496 16.626 2.947 26.781 0 6.75-1.954 13.406-5.888 13.406-13.625V86.501H55.513v-3.406h26.781H95.7c7.792 0 10.696-5.435 13.406-13.594 2.799-8.399 2.68-16.476 0-27.25-1.926-7.757-5.604-13.594-13.406-13.594zM70.575 93.313c2.779 0 5.031 2.277 5.031 5.094 0 2.826-2.252 5.125-5.031 5.125-2.77 0-5.031-2.299-5.031-5.125 0-2.816 2.262-5.094 5.031-5.094z" fill="url(#A)"/></svg>