<svg xmlns="http://www.w3.org/2000/svg"  viewBox="0 0 71.588 48.931"><g transform="matrix(.781054 0 0 .781054 -71.586723 -341.31011)"><path d="M93.029 474.398l43.078 24.871a2.75 2.75 0 0 0 2.75 0l43.078-24.871a2.75 2.75 0 0 0 1.375-2.381v-7.408a2.75 2.75 0 0 0-1.375-2.381l-43.078-24.871a2.75 2.75 0 0 0-2.75 0l-43.078 24.871a2.75 2.75 0 0 0-1.375 2.381v7.408a2.75 2.75 0 0 0 1.375 2.381z" fill="#5fbcd3"/><path d="M93.029 463.814l43.078 24.871a2.75 2.75 0 0 0 2.75 0l43.078-24.871c.284-.164.458-.466.458-.794a.92.92 0 0 0-.458-.794l-43.078-24.871a2.75 2.75 0 0 0-2.75 0l-43.078 24.871c-.284.164-.458.466-.458.794a.92.92 0 0 0 .458.794z" fill="#87cdde"/><g fill="#4d4d4d"><path d="M118.59 449.809l.11 3.969 6.618 2.22 2.327 1.343 2.291-1.323-8.02-5.953z"/><path d="M146.678 477.122c.959 0 1.737-.449 1.737-1.003-.001-.1-.028-.2-.08-.295l3.37-1.946-9.165-5.292-1.146.661 8.02 4.63-2.224 1.284a2.93 2.93 0 0 0-.511-.046c-.959 0-1.737.449-1.737 1.003s.778 1.003 1.737 1.003zm17.629-9.196l-1.146-.661m-4.583 3.969l5.659-3.267c.166.03.34.045.514.045.959 0 1.737-.449 1.737-1.003s-.778-1.003-1.737-1.003-1.737.449-1.737 1.003a.62.62 0 0 0 .078.297l-4.514 2.606-9.165-5.292-1.146.661zm-20.622 10.583l1.146.661m-1.589 1.259c.959 0 1.737-.449 1.737-1.003-.001-.1-.028-.2-.08-.295l5.661-3.269-5.728-3.307 4.583-2.646-4.583-2.646-1.146.661 3.437 1.984-4.583 2.646 5.728 3.307-4.515 2.607a2.93 2.93 0 0 0-.511-.046c-.959 0-1.737.449-1.737 1.003s.778 1.003 1.737 1.003zm17.629-11.842l-1.146.661m1.59 1.259c.959 0 1.737-.449 1.737-1.003s-.777-1.003-1.737-1.003a2.92 2.92 0 0 0-.512.046l-9.098-5.253-1.146.661 9.098 5.253a.63.63 0 0 0-.08.295c0 .554.778 1.003 1.737 1.003zm-26.351-24.346c-.959 0-1.737.449-1.737 1.003.001.1.028.2.08.295l-3.37 1.946 9.165 5.292 1.146-.661-8.02-4.63 2.224-1.284a2.93 2.93 0 0 0 .511.046c.959 0 1.737-.449 1.737-1.003s-.778-1.003-1.737-1.003zm-17.629 9.196l1.146.661m4.583-3.969l-5.659 3.267a2.9 2.9 0 0 0-.514-.045c-.959 0-1.737.449-1.737 1.003s.778 1.003 1.737 1.003 1.737-.449 1.737-1.003a.62.62 0 0 0-.078-.297l4.514-2.606 9.165 5.292 1.146-.661zm20.622-10.583l-1.146-.661m1.589-1.259c-.959 0-1.737.449-1.737 1.003.001.1.028.2.08.295l-5.661 3.269 5.728 3.307-4.583 2.646 4.583 2.646 1.146-.661-3.437-1.984 4.583-2.646-5.728-3.307 4.515-2.607a2.93 2.93 0 0 0 .511.046c.959 0 1.737-.449 1.737-1.003s-.778-1.003-1.737-1.003zm-17.629 11.842l1.146-.661m-1.59-1.259c-.959 0-1.737.449-1.737 1.003s.777 1.003 1.737 1.003a2.92 2.92 0 0 0 .512-.046l9.098 5.253 1.146-.661-9.098-5.253a.63.63 0 0 0 .08-.295c0-.554-.778-1.003-1.737-1.003zm10.829 10.519l6.782 3.916 6.782-3.916-6.782-3.916zm6.8-7.938l-13.748 7.937 13.748 7.937 13.748-7.938zm0 2.646l9.165 5.292-9.165 5.292-9.165-5.292zm21.204 6.318l6.326-3.652 4.515 2.607a.63.63 0 0 0-.08.295c0 .554.778 1.003 1.737 1.003s1.737-.449 1.737-1.003-.777-1.003-1.737-1.003a2.98 2.98 0 0 0-.512.046l-5.661-3.269-6.326 3.652-4.583-2.646-1.146.661-2.78 1.673 1.086.627 2.84-1.639 2.291 1.323zm-10.859-2.991l8.02-4.63 2.224 1.284a.63.63 0 0 0-.08.295c0 .554.778 1.003 1.737 1.003s1.737-.449 1.737-1.003-.777-1.003-1.737-1.003a2.92 2.92 0 0 0-.512.046l-3.37-1.946-9.165 5.292zm-3.437-1.984l9.096-5.251a2.93 2.93 0 0 0 .514.045c.959 0 1.737-.449 1.737-1.003s-.778-1.003-1.737-1.003-1.737.449-1.737 1.003a.62.62 0 0 0 .078.296l-9.096 5.252zm-3.437-1.984l10.311-5.953-5.661-3.269a.63.63 0 0 0 .08-.295c0-.554-.778-1.003-1.737-1.003s-1.737.449-1.737 1.003.777 1.003 1.737 1.003a2.93 2.93 0 0 0 .511-.046l4.515 2.607-9.165 5.292zm-24.641 4.927l-6.326 3.652-4.515-2.607a.63.63 0 0 0 .08-.295c0-.554-.778-1.003-1.737-1.003s-1.737.449-1.737 1.003.777 1.003 1.737 1.003a2.98 2.98 0 0 0 .512-.046l5.661 3.269 6.326-3.652 4.583 2.646 1.146-.661 2.78-1.673-1.086-.627-2.84 1.639-2.291-1.323zm10.859 2.991l-8.02 4.63-2.224-1.284a.63.63 0 0 0 .08-.295c0-.554-.778-1.003-1.737-1.003s-1.737.449-1.737 1.003.777 1.003 1.737 1.003a2.92 2.92 0 0 0 .512-.046l3.37 1.946 9.165-5.292zm3.437 1.984l-9.096 5.251a2.93 2.93 0 0 0-.514-.045c-.959 0-1.737.449-1.737 1.003s.778 1.003 1.737 1.003 1.737-.449 1.737-1.003a.63.63 0 0 0-.077-.296l9.096-5.252zm3.437 1.984l-10.311 5.953 5.661 3.269a.63.63 0 0 0-.08.295c0 .554.778 1.003 1.737 1.003s1.737-.449 1.737-1.003-.777-1.003-1.737-1.003a2.93 2.93 0 0 0-.511.046l-4.515-2.607 9.165-5.292z"/><path d="M102.55 459.07v3.969l7.909 2.902 7.472-2.991 3.437 1.984 6.277-3.624-2.351-1.357-3.926 2.335-4.583-2.646-6.326 3.652-5.661-3.269z"/><path d="M114.007 464.361v3.969l5.618 1.579 10.352-5.977-1.028-.729-.158-1.232-9.165 5.292-2.224-2.607z"/><path d="M119.735 469.504v3.969h3.474l9.019-5.548v-3.969l-9.096 5.252z"/><path d="M133.263 478.765v-3.969l-9.055-3.564v3.969l5.661 3.269 3.394.295"/><path d="M135.904 465.519l-.239 4.39-9.64 5.018.474-3.695zm-7.114-3.547l5.728 3.307-1.277.737-5.555-3.408zm6.985 16.793v3.969l9.055-3.564v-3.969z"/><path d="M136.81 471.894v3.969l5.254 3.033.474-3.695z"/><path d="M143.684 469.248v3.969l-5.224 2.468.641-3.791zm1.257 2.902v3.969l6.763-2.241v-3.969l-4.515 1.284z"/><path d="M157.322 468.843v3.969l-3.327-.256-11.457-7.937 2.291-1.323 9.098 5.253z"/><path d="M166.488 463.038v3.969l-7.905 3.04-12.607-7.414 2.325-1.304 10.277 5.934 5.729-3.307zm6.907.532v-3.969l-7.909-2.902-6.326 3.652-4.583-2.646-5.165 2.943 2.971 1.715 2.194-.689 4.583 1.323 6.326-2.33 4.515 2.607z"/><path d="M161.939 454.31l.11 3.969-5.618-1.579-8.164 4.611-11.919-6.945 3.425-1.411 7.943 4.808 1.222-1.356 7.314-4.223z"/><path d="M156.21 449.167l.11 3.564-8.604 5.031-3.972-2.404 10.215-5.233zm-13.527-5.291v3.969l4.91 1.402 3.063-1.768-5.724-2.646z"/><path d="M151.738 447.439v4.032l-7.958 4.595-3.498-3.336zm-11.602-7.552v3.969l-4.946 1.967-1.817-2.372 3.437-3.307z"/><path d="M131.082 443.451v3.969l2.974 1.654 2.754-2.315zm8.019 3.307l.11 3.969-2.291 1.323-2.402-2.646z"/><path d="M132.227 449.404v3.421l2.963 1.711 2.193-2.816zm-1.256-2.902v3.969l-1.627 1.003-2.845-2.731 1.078-1.946zm-6.763 2.241v3.421l7.498 4.329 1.668-2.458zm-14.784 6.871v3.969l3.396-.297 4.514-2.606 6.874 2.646 2.291-1.323-9.165-5.292-5.659 1.944zm28.532-1.58l-9.165 5.292 9.165 5.292 9.165-5.292zm-2.292 11.907l5.729 3.307-3.437 1.984-2.291-1.323zm3.438.661l7.994 4.756 2.317-1.449-8.02-4.63m-11.604 13.486v-.719l.565.164zm9.46 3.968v-.691l-.42.277zm9.165-6.614v-.684l-.458.123zm5.435-3.308v-1.096l.671.18zm16.072-9.241v-.95l.689.398zm-11.456-5.291v-1.007l.56.323z"/><path d="M112.898 459.582v-1.11l-1.065.615z"/></g><path d="M146.678 473.152c.959 0 1.737-.449 1.737-1.003-.001-.1-.028-.2-.08-.295l3.37-1.946-9.165-5.292-1.146.661 8.02 4.63-2.224 1.284a2.93 2.93 0 0 0-.511-.046c-.959 0-1.737.449-1.737 1.003s.778 1.003 1.737 1.003zm17.629-9.196l-1.146-.661m-4.583 3.969l5.659-3.267c.166.03.34.045.514.045.959 0 1.737-.449 1.737-1.003s-.778-1.003-1.737-1.003-1.737.449-1.737 1.003a.62.62 0 0 0 .078.297l-4.514 2.606-9.165-5.292-1.146.661zm-20.622 10.583l1.146.661m-1.589 1.259c.959 0 1.737-.449 1.737-1.003-.001-.1-.028-.2-.08-.295l5.661-3.269-5.728-3.307 4.583-2.646-4.583-2.646-1.146.661 3.437 1.984-4.583 2.646 5.728 3.307-4.515 2.607a2.93 2.93 0 0 0-.511-.046c-.959 0-1.737.449-1.737 1.003s.778 1.003 1.737 1.003zm17.629-11.842l-1.146.661m1.59 1.259c.959 0 1.737-.449 1.737-1.003s-.777-1.003-1.737-1.003a2.92 2.92 0 0 0-.512.046l-9.098-5.253-1.146.661 9.098 5.253a.63.63 0 0 0-.08.295c0 .554.778 1.003 1.737 1.003zm-26.351-24.346c-.959 0-1.737.449-1.737 1.003.001.1.028.2.08.295l-3.37 1.946 9.165 5.292 1.146-.661-8.02-4.63 2.224-1.284a2.93 2.93 0 0 0 .511.046c.959 0 1.737-.449 1.737-1.003s-.778-1.003-1.737-1.003zm-17.629 9.196l1.146.661m4.583-3.969l-5.659 3.267a2.9 2.9 0 0 0-.514-.045c-.959 0-1.737.449-1.737 1.003s.778 1.003 1.737 1.003 1.737-.449 1.737-1.003a.62.62 0 0 0-.078-.297l4.514-2.606 9.165 5.292 1.146-.661zm20.622-10.583l-1.146-.661m1.589-1.259c-.959 0-1.737.449-1.737 1.003.001.1.028.2.08.295l-5.661 3.269 5.728 3.307-4.583 2.646 4.583 2.646 1.146-.661-3.437-1.984 4.583-2.646-5.728-3.307 4.515-2.607a2.93 2.93 0 0 0 .511.046c.959 0 1.737-.449 1.737-1.003s-.778-1.003-1.737-1.003zm-17.629 11.842l1.146-.661m-1.59-1.259c-.959 0-1.737.449-1.737 1.003s.777 1.003 1.737 1.003a2.92 2.92 0 0 0 .512-.046l9.098 5.253 1.146-.661-9.098-5.253a.63.63 0 0 0 .08-.295c0-.554-.778-1.003-1.737-1.003zm10.829 10.519l6.782 3.916 6.782-3.916-6.782-3.916zm6.8-7.938l-13.748 7.937 13.748 7.937 13.748-7.938zm0 2.646l9.165 5.292-9.165 5.292-9.165-5.292zm21.204 6.318l6.326-3.652 4.515 2.607a.63.63 0 0 0-.08.295c0 .554.778 1.003 1.737 1.003s1.737-.449 1.737-1.003-.777-1.003-1.737-1.003a2.98 2.98 0 0 0-.512.046l-5.661-3.269-6.326 3.652-4.583-2.646-1.146.661-2.78 1.673 1.052.608 2.84-1.639 2.325 1.342zm-10.859-2.991l8.02-4.63 2.224 1.284a.63.63 0 0 0-.08.295c0 .554.778 1.003 1.737 1.003s1.737-.449 1.737-1.003-.777-1.003-1.737-1.003a2.92 2.92 0 0 0-.512.046l-3.37-1.946-9.165 5.292zm-3.437-1.984l9.096-5.251a2.93 2.93 0 0 0 .514.045c.959 0 1.737-.449 1.737-1.003s-.778-1.003-1.737-1.003-1.737.449-1.737 1.003a.62.62 0 0 0 .078.296l-9.096 5.252zm-3.437-1.984l10.311-5.953-5.661-3.269a.63.63 0 0 0 .08-.295c0-.554-.778-1.003-1.737-1.003s-1.737.449-1.737 1.003.777 1.003 1.737 1.003a2.93 2.93 0 0 0 .511-.046l4.515 2.607-9.165 5.292zm-24.641 4.927l-6.326 3.652-4.515-2.607a.63.63 0 0 0 .08-.295c0-.554-.778-1.003-1.737-1.003s-1.737.449-1.737 1.003.777 1.003 1.737 1.003a2.98 2.98 0 0 0 .512-.046l5.661 3.269 6.326-3.652 4.583 2.646 1.146-.661 2.78-1.673-1.086-.627-2.84 1.639-2.291-1.323zm10.859 2.991l-8.02 4.63-2.224-1.284a.63.63 0 0 0 .08-.295c0-.554-.778-1.003-1.737-1.003s-1.737.449-1.737 1.003.777 1.003 1.737 1.003a2.92 2.92 0 0 0 .512-.046l3.37 1.946 9.165-5.292zm3.437 1.984l-9.096 5.251a2.93 2.93 0 0 0-.514-.045c-.959 0-1.737.449-1.737 1.003s.778 1.003 1.737 1.003 1.737-.449 1.737-1.003a.63.63 0 0 0-.077-.296l9.096-5.252zm3.437 1.984l-10.311 5.953 5.661 3.269a.63.63 0 0 0-.08.295c0 .554.778 1.003 1.737 1.003s1.737-.449 1.737-1.003-.777-1.003-1.737-1.003a2.93 2.93 0 0 0-.511.046l-4.515-2.607 9.165-5.292z" fill="#999"/></g></svg>