<svg xmlns="http://www.w3.org/2000/svg" viewBox="0 0 71.588 48.933" xmlns:v="https://vecta.io/nano"><g transform="matrix(.781054 0 0 .781054 -71.586723 -289.64729)"><path d="M93.029 408.252l43.078 24.871a2.75 2.75 0 0 0 2.75 0l43.078-24.871a2.75 2.75 0 0 0 1.375-2.381v-7.408a2.75 2.75 0 0 0-1.375-2.381l-43.078-24.871a2.75 2.75 0 0 0-2.75 0l-43.078 24.871a2.75 2.75 0 0 0-1.375 2.381v7.408a2.75 2.75 0 0 0 1.375 2.381z" fill="#5fbcd3"/><path d="M93.029 397.669l43.078 24.871a2.75 2.75 0 0 0 2.75 0l43.078-24.871c.284-.164.458-.466.458-.794a.92.92 0 0 0-.458-.794l-43.078-24.871a2.75 2.75 0 0 0-2.75 0l-43.078 24.871c-.284.164-.458.466-.458.794a.92.92 0 0 0 .458.794z" fill="#87cdde"/><g transform="matrix(1.46282 0 0 1.46282 -55.19838 -189.40923)"><path d="M130.288 389.12l-6.986 1.423-2.264 3.429 1.548 1.738c1.006-1.225 3.414-2.027 6.091-2.027 2.5 0 4.783.701 5.892 1.808l2.156-3.136z" fill="#4d4d4d"/><path d="M130.321 387.412l-1.096.967-.87.032-1.161-.935-2.224.322-.065 1.063-.838.322-1.773-.483-1.515.999v1.328l-1.58.026-.548 1.321v1.781l-.065.025v3.667l.677 1.193 1.547.315v1.33l1.515.806 1.741-.451.806.322.129 1.031 2.095.322.999-.871h1.096l1.064.935 2.095-.419.129-1.063.838-.322 1.741.548 1.579-.806v-1.567l1.58-.077.484-1.225v-3.667l.064-1.87-.548-1.161h-1.531l-.017-1.579-1.644-.87-1.708.483-.87-.29-.129-1.161zm-1.644 2.603c3.631 0 6.575 1.454 6.575 3.248s-2.944 3.248-6.575 3.248-6.575-1.454-6.575-3.248 2.944-3.248 6.575-3.248z" fill="#999"/><g fill="#4d4d4d"><path d="M136.671 389.572l-.87.967.451.58.435.007zm-15.892.129v1.328l.355-.006.516-.419zm17.987 2.611l-1.579.709-.032.548 1.547.612zm-.064 1.87l-.484 1.225-1.998.097-.484.483.902 1.064-1.579.806-1.741-.548-.838.322-.129 1.063-2.095.419-1.064-.935h-1.096l-.999.87-2.095-.322-.129-1.031-.806-.322-1.741.452-1.515-.806.71-1.063-.419-.452-1.838-.129-.677-1.193v3.667l.677 1.193 1.547.315v1.33l1.515.806 1.741-.451.806.322.129 1.031 2.095.322.999-.871h1.096l1.064.935 2.095-.419.129-1.063.838-.322 1.741.548 1.579-.806v-1.567l1.58-.077.484-1.225zm-20.05-1.805v1.78l1.612-.62v-.548z"/><path d="M137.482 399.79l-4.583 1.347-.271 2.709.413.082a4.715 2.255 0 0 1 4.61-1.804 4.715 2.255 0 0 1 4.629 1.829l.511-.091-.16-2.517z"/></g><path d="M138.424 398.265l-1.579.064-.516.903-.967.161-1.353-.516-1.257.516-.033 1.386-1.773.065-.452.806v1.518l.269.134-.333.153v1.517l.516.838 1.579-.064.226.214v1.365l1.128.355 1.322-.451 1.16.161.516.935 1.515-.032.516-.903.967-.161 1.451.484 1.16-.516v-1.212l.161-.142 1.741-.065.419-.806v-1.517l-.27-.129.335-.159h.001l-.001-1.518-.516-.806-1.579-.032-.338-.242.081-1.209-1.096-.484-1.515.516-.999-.193zm-.773 2.016a4.715 2.255 0 0 1 4.715 2.255 4.715 2.255 0 0 1-4.715 2.255 4.715 2.255 0 0 1-4.715-2.255 4.715 2.255 0 0 1 4.715-2.255z" fill="#999"/><path d="M142.518 399.361l-.419.967.338.242zm-9.767.032l-.033 1.386h.001l.483-.419zm-2.257 2.256v1.518l.267.134.99-.459-.032-.58zm14.377 0l-1.386.645.033.548 1.019.484.334-.159h.001zm-14.441 1.805v.001 1.517l.516.838 1.579-.064.226.214v1.365l1.128.355 1.322-.451 1.16.161.516.935 1.515-.032.516-.903.967-.161 1.451.484 1.16-.516v-1.212l.161-.142 1.741-.065.419-.806v-1.517l-.419.805-1.741.065-.548.483.387.871-1.16.516-1.451-.484-.967.161-.516.903-1.515.032-.516-.935-1.16-.161-1.322.451-1.128-.354.419-.967-.645-.612-1.579.064z" fill="#4d4d4d"/><path d="M132.354 405.458l-1.483.097-.355.58-1.031.29-1.612-.29-.709.58v1.373l-1.257.271v2.646l1.272.734.018.909.935.54 1.257-.346 1.031.258.548.774 1.419.064.548-.902.871-.226 1.386.445 1.097-.633v-1.448l1.193-.234v-1.808l-.065-.742-1.193-.181v-1.559l-1.031-.516-1.354.354-1.128-.29zm-.66 1.608c1.799 0 3.257.729 3.257 1.628s-1.458 1.628-3.257 1.628-3.257-.729-3.257-1.628 1.458-1.628 3.257-1.628z" fill="#999"/><path d="M132.709 406.199v.001l1.128.29zm3.513.452l-.645.902.419.613.226.036zm-9.058.065v1.37l.225-.049.419-.548zm4.529.35c-1.799 0-3.257.729-3.257 1.628.004.32.197.633.555.899.602-.452 1.615-.724 2.702-.726s2.106.276 2.707.73c.358-.268.549-.582.549-.904 0-.899-1.458-1.628-3.257-1.628zm5.786 2.067l-1.483.29-.387.71.677.709-1.096.548-1.386-.387-.871.226-.509.838h.126l-.134.014-.03.05-.374-.017-.319.011a6.36 6.36 0 0 1-.858-.058h.132l-.548-.774-1.031-.257-1.257.322-.935-.516.58-.806-.452-.612-1.418-.226v1.808l1.272.734.018.91.935.54 1.257-.346 1.031.258.548.774 1.419.064.548-.902.871-.226 1.385.446 1.097-.634v-1.448l1.193-.234z" fill="#4d4d4d"/></g></g></svg>