<svg xmlns="http://www.w3.org/2000/svg"  viewBox="0 0 71.588 48.931"><path d="M1.074 29.22L34.72 48.645a2.15 2.15 0 0 0 2.148 0L70.514 29.22a2.15 2.15 0 0 0 1.074-1.86v-5.787a2.15 2.15 0 0 0-1.074-1.86L36.868.288a2.15 2.15 0 0 0-2.148 0L1.074 19.713A2.15 2.15 0 0 0 0 21.573v5.787a2.15 2.15 0 0 0 1.074 1.86z" fill="#5fbcd3"/><path d="M1.074 20.954L34.72 40.379a2.15 2.15 0 0 0 2.148 0l33.646-19.426c.221-.128.358-.364.358-.62s-.136-.492-.358-.62L36.868.288a2.15 2.15 0 0 0-2.148 0L1.074 19.713c-.221.128-.358.364-.358.62s.136.492.358.62z" fill="#2c89a0"/></svg>