<svg xmlns="http://www.w3.org/2000/svg"  viewBox="0 0 71.588 48.931"><path d="M1.074 29.219L34.72 48.645a2.15 2.15 0 0 0 2.148 0l33.646-19.425a2.15 2.15 0 0 0 1.074-1.86v-5.786a2.15 2.15 0 0 0-1.074-1.86L36.868.289a2.15 2.15 0 0 0-2.148 0L1.074 19.714A2.15 2.15 0 0 0 0 21.574v5.786a2.15 2.15 0 0 0 1.074 1.86z" fill="#5fbcd3"/><path d="M1.074 20.953L34.72 40.379a2.15 2.15 0 0 0 2.148 0l33.646-19.425c.222-.128.358-.364.358-.62s-.137-.492-.358-.62L36.868.288a2.15 2.15 0 0 0-2.148 0L1.074 19.713c-.222.128-.358.364-.358.62s.137.492.358.62z" fill="#87cdde"/><path d="M16.108 20.542v.825l1.789 1.033 5.369-9.299 16.107-3.1V8.709l-1.789.109-14.317 3.239z" fill="#4d4d4d"/><path d="M16.644 21.677l.716.413a.62.62 0 0 0 .847-.227l4.749-8.225c.197-.341.532-.579.919-.654l14.889-2.866a.75.75 0 0 0 .608-.737v-.826c0-.384-.204-.738-.537-.93l-.716-.413c-.346-.2-.753-.268-1.146-.193L22.084 9.884c-.387.074-.722.313-.919.654l-4.749 8.225c-.203.352-.31.751-.31 1.157v.826c0 .384.204.738.537.93z" fill="#999"/><path d="M36.975 7.018L29.53 8.451l7.447-1.433zm2.106.801c.012.041.007.085-.015.121s-.057.063-.099.072l-15.295 2.943c-.258.05-.481.209-.612.437l-4.956 8.584c-.114.197-.366.265-.564.152l-1.074-.62c-.129-.075-.208-.214-.205-.364-.095.248-.147.511-.153.777v.826c0 .384.205.738.537.93l.715.413a.62.62 0 0 0 .847-.227l4.75-8.226c.197-.341.532-.579.919-.654l14.889-2.866a.75.75 0 0 0 .608-.737v-.826c0-.273-.105-.536-.292-.735zM17.897 25.5v1.033l1.789 1.033L53.69 14.134v-1.033z" fill="#4d4d4d"/><path d="M18.255 26.739l1.074.62c.226.13.499.151.742.055l33.235-13.129a.61.61 0 0 0 .384-.565v-1.24c0-.256-.136-.492-.358-.62l-1.074-.62c-.226-.13-.499-.151-.742-.055L18.281 24.314a.61.61 0 0 0-.384.565v1.24c0 .256.136.492.358.62z" fill="#999"/><path d="M51.894 11.129c-.128-.01-.257.01-.377.057l-.192.076c.364-.144.774-.114 1.113.082l-.179-.103c-.112-.064-.236-.103-.365-.112zm1.26.629a.3.3 0 0 1-.04.537l-32.85 12.977c-.364.144-.774.114-1.114-.082l-.715-.413a.3.3 0 0 1 .04-.537l-.192.076a.61.61 0 0 0-.384.565v1.24c0 .256.136.492.358.62l1.074.62c.226.13.499.151.742.055l33.234-13.129a.61.61 0 0 0 .384-.565v-1.24c0-.256-.136-.492-.358-.62zM32.214 29.632v1.033l1.789 1.033 15.901-3.219 5.574-9.18-1.789-1.033-5.369 9.299z" fill="#4d4d4d"/><path d="M32.572 30.873l1.074.62a1.11 1.11 0 0 0 .764.129l15.295-2.944c.258-.05.481-.209.612-.436l4.956-8.584c.135-.234.207-.5.207-.771v-1.24c0-.256-.136-.492-.358-.62l-1.074-.62c-.095-.055-.208-.07-.314-.041s-.196.098-.251.193l-4.956 8.584c-.131.227-.355.386-.612.436L32.62 28.523a.5.5 0 0 0-.406.491v1.24c0 .256.136.492.358.62z" fill="#999"/><path d="M53.483 16.559l-4.956 8.584zm1.639.469c.198.114.265.367.152.565l-4.956 8.584c-.131.227-.355.387-.612.437L34.41 29.555a1.11 1.11 0 0 1-.764-.128l-1.074-.62c-.056-.032-.086-.095-.075-.159s.059-.114.123-.126a.5.5 0 0 0-.405.491v1.24a.72.72 0 0 0 .358.62l1.074.62a1.11 1.11 0 0 0 .764.128l15.295-2.943c.258-.05.481-.209.612-.437l4.956-8.584c.135-.234.207-.501.207-.772v-1.24c0-.255-.136-.492-.358-.62z" fill="#4d4d4d"/></svg>