<svg xmlns="http://www.w3.org/2000/svg" viewbox="0 0 71.588 48.931"><path d="M1.074 29.218L34.72 48.643a2.15 2.15 0 0 0 2.148 0l33.646-19.425a2.15 2.15 0 0 0 1.074-1.86v-5.786a2.15 2.15 0 0 0-1.074-1.86L36.867.287a2.15 2.15 0 0 0-2.148 0L1.074 19.712A2.15 2.15 0 0 0 0 21.572v5.786a2.15 2.15 0 0 0 1.074 1.86z" fill="#ffd42a"/><path d="M9.672 32.106l-5.011-2.893a2.15 2.15 0 0 1-1.074-1.86v-3.926a1.79 1.79 0 0 1 .895-1.55L39.381 1.728l7.159 4.133L22.38 19.81c-.185.107-.298.304-.298.517a.6.6 0 0 0 .298.517l12.528 7.233a1.79 1.79 0 0 0 1.79 0l24.16-13.949 7.159 4.133-24.16 13.949c-.185.107-.298.304-.298.517a.6.6 0 0 0 .298.517l1.79 1.033a1.79 1.79 0 0 1 .895 1.55v2.221c0 .638-.346 1.225-.903 1.535l-5.352 2.975a.61.61 0 0 1-.903-.531v-2.068a1.79 1.79 0 0 0-.895-1.55L15.22 24.977a1.79 1.79 0 0 0-1.79 0l-1.79 1.033a1.79 1.79 0 0 0-.895 1.55v3.926c0 .256-.136.492-.358.62s-.494.128-.716 0z" fill="#666"/><path d="M1.074 19.712A2.15 2.15 0 0 0 0 21.572v5.786a2.15 2.15 0 0 0 1.074 1.86L34.72 48.643a2.15 2.15 0 0 0 2.148 0l33.646-19.425a2.15 2.15 0 0 0 1.074-1.86v-5.786a2.15 2.15 0 0 0-1.074-1.86c.221.128.358.364.358.62s-.136.492-.358.62L36.867 40.377a2.15 2.15 0 0 1-2.148 0L1.074 20.952c-.221-.128-.358-.364-.358-.62s.136-.492.358-.62z" fill-opacity=".1"/></svg>