<svg xmlns="http://www.w3.org/2000/svg" viewBox="0 0 24 24" xmlns:v="https://vecta.io/nano" fill="currentColor"><path d="M12.928 4.294l3.8 2.193c.137.077.14.293 0 .367L12.212 9.46c-.137.08-.297.073-.427 0L7.272 6.854c-.137-.077-.143-.293 0-.367l3.797-2.193V0L1.375 5.597V16.79v-.05.05l3.72-2.147v-4.387c-.003-.156.183-.266.32-.183l4.517 2.607a.43.43 0 0 1 .213.37v5.213c.003.156-.18.267-.317.183l-3.8-2.193-3.723 2.15L11.998 24l9.693-5.597-3.717-2.147-3.8 2.193c-.133.08-.323-.023-.317-.183v-5.213a.43.43 0 0 1 .213-.37l4.513-2.607c.133-.083.323.023.32.183v4.387l3.72 2.147V5.597L12.928 0z"/></svg>