<?xml version="1.0" encoding="UTF-8" standalone="no"?>
<!-- Created with Inkscape (http://www.inkscape.org/) -->

<svg
   width="511.99997"
   height="511.99884"
   viewBox="0 0 511.99997 511.99884"
   version="1.1"
   id="svg1"
   xmlns="http://www.w3.org/2000/svg"
   xmlns:svg="http://www.w3.org/2000/svg">
  <defs
     id="defs1" />
  <g
     id="layer1"
     transform="translate(-484.43054,-513.94144)">
    <g
       id="g10"
       transform="matrix(5.5861869,0,0,5.5861869,-1435.503,-981.25979)">
      <g
         id="g8-1-4-0"
         transform="translate(280.45168,151.24859)">
        <path
           style="fill:#5fbcd3;stroke:none;stroke-width:0.264583"
           d="m 58.658779,192.61667 43.077551,24.87083 a 2.7496313,2.7496313 180 0 0 2.74964,0 l 43.07754,-24.87083 a 2.7496304,2.7496304 120 0 0 1.37482,-2.38125 v -7.40833 a 2.7496309,2.7496309 60.000002 0 0 -1.37482,-2.38125 L 104.48597,155.575 a 2.7496303,2.7496303 1.6241315e-6 0 0 -2.74964,0 l -43.077551,24.87084 a 2.7496308,2.7496308 120 0 0 -1.374815,2.38125 l 0,7.40833 a 2.7496302,2.7496302 59.999996 0 0 1.374815,2.38125 z"
           id="path4-6-1-4-9"
           transform="translate(5.9575328,-9.7895871)" />
        <path
           style="fill:#2c89a0;stroke:none;stroke-width:0.264583"
           d="m 58.65878,182.03333 43.07755,24.87084 a 2.7496303,2.7496303 180 0 0 2.74964,0 l 43.07754,-24.87084 a 0.91654346,0.91654346 89.999993 0 0 0,-1.5875 L 104.48596,155.575 a 2.7496313,2.7496313 180 0 0 -2.74964,0 l -43.07754,24.87083 a 0.91654356,0.91654356 90.000002 0 0 0,1.5875 z"
           id="path5-89-5-7-3"
           transform="translate(5.9575328,-9.7895871)" />
      </g>
      <g
         id="g8-1-6"
         transform="translate(280.45168,136.74601)">
        <path
           style="fill:#5fbcd3;stroke:none;stroke-width:0.264583"
           d="m 58.658779,192.61667 43.077551,24.87083 a 2.7496313,2.7496313 180 0 0 2.74964,0 l 43.07754,-24.87083 a 2.7496304,2.7496304 120 0 0 1.37482,-2.38125 v -7.40833 a 2.7496309,2.7496309 60.000002 0 0 -1.37482,-2.38125 L 104.48597,155.575 a 2.7496303,2.7496303 1.6241315e-6 0 0 -2.74964,0 l -43.077551,24.87084 a 2.7496308,2.7496308 120 0 0 -1.374815,2.38125 l 0,7.40833 a 2.7496302,2.7496302 59.999996 0 0 1.374815,2.38125 z"
           id="path4-6-1-0"
           transform="translate(5.9575328,-9.7895871)" />
        <path
           style="fill:#2c89a0;stroke:none;stroke-width:0.264583"
           d="m 58.65878,182.03333 43.07755,24.87084 a 2.7496303,2.7496303 180 0 0 2.74964,0 l 43.07754,-24.87084 a 0.91654346,0.91654346 89.999993 0 0 0,-1.5875 L 104.48596,155.575 a 2.7496313,2.7496313 180 0 0 -2.74964,0 l -43.07754,24.87083 a 0.91654356,0.91654356 90.000002 0 0 0,1.5875 z"
           id="path5-89-5-6"
           transform="translate(5.9575328,-9.7895871)" />
      </g>
      <g
         id="g6"
         transform="translate(6.4000001e-6,-1.6175732e-4)">
        <path
           style="fill:#ffdd55;stroke:none;stroke-width:0.264583"
           d="m 58.658779,192.61667 43.077551,24.87083 a 2.7496313,2.7496313 180 0 0 2.74964,0 l 43.07754,-24.87083 a 2.7496304,2.7496304 120 0 0 1.37482,-2.38125 v -7.40833 a 2.7496309,2.7496309 60.000002 0 0 -1.37482,-2.38125 L 104.48597,155.575 a 2.7496303,2.7496303 1.6241315e-6 0 0 -2.74964,0 l -43.077551,24.87084 a 2.7496308,2.7496308 120 0 0 -1.374815,2.38125 l 0,7.40833 a 2.7496302,2.7496302 59.999996 0 0 1.374815,2.38125 z"
           id="path4-5-2-8-6"
           transform="translate(286.40935,112.45398)" />
        <path
           style="fill:#666666;fill-opacity:1;stroke:none;stroke-width:0.264583"
           d="m 67.366091,54.768723 -6.41581,-3.704167 a 2.7496841,2.7496841 59.999507 0 1 -1.374842,-2.38125 l -8.5e-5,-5.027056 a 2.2913138,2.2913138 119.99951 0 1 1.145656,-1.984375 l 44.6815,-25.796876 9.16543,5.291667 -30.933341,17.859375 a 0.76378631,0.76378631 89.999999 0 0 0,1.322916 l 16.039512,9.260417 a 2.2913586,2.2913586 180 0 0 2.291359,0 l 30.93334,-17.859375 9.16544,5.291667 -30.93335,17.859374 a 0.76378607,0.76378607 90 0 0 0,1.322916 l 2.29136,1.322918 a 2.2913585,2.2913585 59.999997 0 1 1.14568,1.984375 v 2.843667 a 2.2487286,2.2487286 120.4681 0 1 -1.15633,1.965568 l -6.85277,3.808528 a 0.7782657,0.7782657 30.468102 0 1 -1.15633,-0.680266 V 64.82292 a 2.291359,2.291359 60.000002 0 0 -1.14568,-1.984375 L 74.469159,45.640621 a 2.2913548,2.2913548 179.99996 0 0 -2.291357,2e-6 l -2.291353,1.322917 a 2.2913175,2.2913175 119.99947 0 0 -1.145655,1.984377 l 8.5e-5,5.027056 a 0.91652575,0.91652575 149.99951 0 1 -1.374788,0.79375 z"
           id="path17-6-8-8"
           transform="translate(288.71122,254)" />
        <path
           id="path4-5-2-8-6-3-0-5"
           style="fill:#000000;fill-opacity:0.1;stroke:none;stroke-width:0.264583"
           d="m 345.06814,292.89982 a 2.7496308,2.7496308 0 0 0 -1.37511,2.38125 v 7.40833 a 2.7496302,2.7496302 0 0 0 1.37511,2.38125 l 43.07747,24.87083 a 2.7496313,2.7496313 0 0 0 2.74971,0 l 43.07747,-24.87083 a 2.7496304,2.7496304 0 0 0 1.37459,-2.38125 v -7.40833 a 2.7496309,2.7496309 0 0 0 -1.37459,-2.38125 0.91654346,0.91654346 0 0 1 0,1.5875 l -43.07747,24.87083 a 2.7496303,2.7496303 0 0 1 -2.74971,0 l -43.07747,-24.87083 a 0.91654356,0.91654356 0 0 1 0,-1.5875 z" />
      </g>
    </g>
  </g>
</svg>
